<?xml version="1.0" encoding="utf-8"?>
<!-- Generator: Adobe Illustrator 25.2.3, SVG Export Plug-In . SVG Version: 6.00 Build 0)  -->
<svg version="1.1" id="Layer_1" xmlns="http://www.w3.org/2000/svg" xmlns:xlink="http://www.w3.org/1999/xlink" x="0px" y="0px"
	 viewBox="0 0 96.1 51.1" style="enable-background:new 0 0 96.1 51.1;" xml:space="preserve">
<style type="text/css">
	.st0{fill:#FFFFFF;}
</style>
<g>
	<g>
		<g>
			<path class="st0" d="M42.5,46.8c-0.2-0.5-0.3-1-0.5-1.6c-0.2-0.5-0.4-1.1-0.6-1.6h-5.8c-0.2,0.5-0.4,1.1-0.6,1.6
				s-0.4,1.1-0.5,1.6H31c0.6-1.6,1.1-3.1,1.6-4.4c0.5-1.4,1-2.6,1.5-3.8s1-2.3,1.4-3.4s1-2.1,1.5-3.2h3.2c0.5,1,1,2.1,1.4,3.2
				c0.5,1.1,1,2.2,1.4,3.4c0.5,1.2,1,2.5,1.5,3.8c0.5,1.4,1,2.8,1.6,4.4H42.5z M38.5,35.3c-0.1,0.2-0.2,0.5-0.3,0.9
				c-0.1,0.4-0.3,0.8-0.5,1.3s-0.4,1-0.6,1.6s-0.5,1.2-0.7,1.8h4.2c-0.2-0.6-0.4-1.3-0.7-1.8s-0.4-1.1-0.6-1.6s-0.3-1-0.4-1.3
				C38.7,35.8,38.6,35.5,38.5,35.3z"/>
			<path class="st0" d="M47.8,35.9c0.5-0.2,1.2-0.3,2.1-0.4c0.9-0.1,1.8-0.2,2.7-0.2c1,0,1.8,0.1,2.4,0.4c0.6,0.3,1.1,0.6,1.5,1.1
				s0.6,1,0.8,1.6s0.2,1.3,0.2,2.1v6.4h-3.2v-6c0-1-0.1-1.8-0.4-2.2s-0.8-0.6-1.5-0.6c-0.2,0-0.5,0-0.7,0s-0.5,0-0.7,0.1v8.7h-3.2
				C47.8,46.9,47.8,35.9,47.8,35.9z"/>
			<path class="st0" d="M60.3,32.7l3.2-0.5v3.3h3.8v2.7h-3.8v4c0,0.7,0.1,1.2,0.4,1.6c0.2,0.4,0.7,0.6,1.4,0.6c0.3,0,0.7,0,1.1-0.1
				s0.7-0.2,1-0.3l0.5,2.5c-0.4,0.2-0.8,0.3-1.3,0.4s-1.1,0.2-1.7,0.2c-0.9,0-1.6-0.1-2.2-0.4c-0.6-0.2-1-0.6-1.4-1
				s-0.6-0.9-0.7-1.5s-0.2-1.3-0.2-2v-9.5H60.3z"/>
			<path class="st0" d="M69,41.2c0-1,0.2-1.9,0.5-2.6c0.3-0.8,0.7-1.4,1.2-1.9s1.1-0.9,1.7-1.1s1.3-0.4,2-0.4c1.6,0,2.9,0.5,3.8,1.5
				s1.4,2.4,1.4,4.3c0,0.2,0,0.4,0,0.6c0,0.2,0,0.4,0,0.6h-7.2c0.1,0.7,0.4,1.2,0.9,1.6c0.5,0.4,1.3,0.6,2.2,0.6
				c0.6,0,1.2-0.1,1.7-0.2c0.6-0.1,1-0.2,1.4-0.4l0.4,2.6c-0.2,0.1-0.4,0.2-0.7,0.3c-0.3,0.1-0.6,0.2-1,0.2
				c-0.4,0.1-0.7,0.1-1.1,0.2c-0.4,0-0.8,0.1-1.2,0.1c-1,0-1.9-0.2-2.6-0.5c-0.8-0.3-1.4-0.7-1.9-1.2s-0.9-1.1-1.1-1.9
				C69.1,42.8,69,42,69,41.2z M76.5,40c0-0.3-0.1-0.5-0.1-0.8s-0.2-0.5-0.4-0.7c-0.2-0.2-0.4-0.4-0.6-0.5s-0.6-0.2-0.9-0.2
				c-0.4,0-0.7,0.1-0.9,0.2c-0.3,0.1-0.5,0.3-0.6,0.5s-0.3,0.4-0.4,0.7s-0.2,0.5-0.2,0.8H76.5z"/>
			<path class="st0" d="M92.6,41.1c0,0.9-0.1,1.7-0.4,2.4c-0.3,0.7-0.6,1.4-1.1,1.9s-1.1,0.9-1.7,1.2C88.7,46.9,88,47,87.1,47
				c-0.8,0-1.6-0.1-2.3-0.4c-0.7-0.3-1.3-0.7-1.7-1.2c-0.5-0.5-0.9-1.2-1.1-1.9c-0.3-0.7-0.4-1.5-0.4-2.4s0.1-1.7,0.4-2.4
				s0.7-1.4,1.2-1.9c0.5-0.5,1.1-0.9,1.8-1.2s1.4-0.4,2.2-0.4s1.6,0.1,2.2,0.4c0.7,0.3,1.3,0.7,1.7,1.2c0.5,0.5,0.9,1.1,1.1,1.9
				C92.5,39.4,92.6,40.2,92.6,41.1z M89.3,41.1c0-1-0.2-1.8-0.6-2.3c-0.4-0.6-1-0.8-1.7-0.8s-1.3,0.3-1.7,0.8
				c-0.4,0.6-0.6,1.3-0.6,2.3s0.2,1.8,0.6,2.3c0.4,0.6,1,0.9,1.7,0.9s1.3-0.3,1.7-0.9C89.1,42.9,89.3,42.1,89.3,41.1z"/>
		</g>
	</g>
	<g>
		<g>
			<path class="st0" d="M39.1,21.2h-3.9c0-7.6-6.2-13.8-13.8-13.8S7.6,13.6,7.6,21.2S13.8,35,21.4,35v3.9c-9.8,0-17.7-7.9-17.7-17.7
				S11.6,3.5,21.4,3.5S39.1,11.5,39.1,21.2z"/>
		</g>
		<g>
			<path class="st0" d="M21.4,29.7v-8.4h8.4l0,0c0-4.7-3.8-8.4-8.4-8.4s-8.5,3.7-8.5,8.3C12.9,25.9,16.7,29.7,21.4,29.7z"/>
		</g>
	</g>
</g>
</svg>
