<?xml version="1.0" encoding="utf-8"?>
<!-- Generator: Adobe Illustrator 25.2.3, SVG Export Plug-In . SVG Version: 6.00 Build 0)  -->
<svg version="1.1" id="Layer_1" xmlns="http://www.w3.org/2000/svg" xmlns:xlink="http://www.w3.org/1999/xlink" x="0px" y="0px"
	 viewBox="0 0 256 256" style="enable-background:new 0 0 256 256;" xml:space="preserve">
<style type="text/css">
	.st0{fill:#00BBE9;}
	.st1{fill:#FFFFFF;}
</style>
<g id="Instagram-3_1_">
	<path id="back-47_1_" class="st0" d="M46.6,1.9h162.5c24.5,0,44.3,19.8,44.3,44.3v162.5c0,24.5-19.8,44.3-44.3,44.3H46.6
		c-24.5,0-44.3-19.8-44.3-44.3V46.2C2.3,21.8,22.1,1.9,46.6,1.9z"/>
</g>
<path class="st1" d="M127.9,69.6c18.8,0,21,0,28.5,0.4c4.5,0,8.9,0.9,13.1,2.4c6.1,2.4,11,7.2,13.3,13.3c1.6,4.2,2.4,8.6,2.4,13.1
	c0.4,7.4,0.4,9.7,0.4,28.5s0,21-0.4,28.5c0,4.5-0.9,8.9-2.4,13.1c-2.4,6.1-7.2,11-13.3,13.3c-4.2,1.6-8.6,2.4-13.1,2.4
	c-7.4,0.4-9.6,0.4-28.5,0.4s-21,0-28.5-0.4c-4.5,0-8.9-0.9-13.1-2.4c-6.1-2.4-11-7.2-13.3-13.3c-1.6-4.2-2.4-8.6-2.4-13.1
	c-0.4-7.4-0.4-9.7-0.4-28.5s0-21,0.4-28.5c0-4.5,0.9-8.9,2.4-13.1c2.4-6.1,7.2-11,13.3-13.3c4.2-1.6,8.6-2.4,13.1-2.4
	C106.8,69.7,109.1,69.6,127.9,69.6 M127.9,57c-19.1,0-21.5,0-29,0.4c-5.8,0.1-11.6,1.2-17.1,3.3C72.2,64.3,64.7,71.8,61,81.4
	c-2.1,5.5-3.2,11.3-3.3,17.1c-0.3,7.5-0.4,9.9-0.4,29s0,21.5,0.4,29c0.1,5.8,1.2,11.6,3.3,17.1c3.6,9.5,11.2,17.1,20.7,20.7
	c5.5,2.1,11.3,3.2,17.1,3.3c7.5,0.3,9.9,0.4,29,0.4s21.5,0,29-0.4c5.8-0.1,11.6-1.2,17.1-3.3c9.5-3.6,17.1-11.2,20.7-20.7
	c2.1-5.5,3.2-11.3,3.3-17.1c0.3-7.5,0.4-9.9,0.4-29s0-21.5-0.4-29c-0.1-5.8-1.2-11.6-3.3-17.1c-3.6-9.5-11.2-17.1-20.7-20.7
	c-5.5-2.1-11.3-3.2-17.1-3.3C149.4,57,147,57,127.9,57z"/>
<path class="st1" d="M127.9,91.3c-20,0-36.2,16.2-36.2,36.2s16.2,36.2,36.2,36.2s36.2-16.2,36.2-36.2c0,0,0,0,0,0
	C164,107.5,147.8,91.3,127.9,91.3z M127.9,150.9c-13,0-23.5-10.5-23.5-23.5s10.5-23.5,23.5-23.5c13,0,23.5,10.5,23.5,23.5v0
	C151.3,140.4,140.8,150.9,127.9,150.9z"/>
<circle class="st1" cx="127.9" cy="127.5" r="8.5"/>
</svg>
